<svg width="228" height="157" viewBox="0 0 228 157" fill="none" xmlns="http://www.w3.org/2000/svg">
<path d="M152.612 84.6702H75.3934C73.9544 84.6702 72.6062 85.3518 71.7476 86.5098C70.8952 87.6498 70.6352 89.1516 71.0524 90.5148L76.2882 107.668C76.8686 109.574 78.6279 110.871 80.6231 110.871H147.371C149.366 110.871 151.131 109.574 151.712 107.668L156.941 90.5148C157.365 89.1456 157.105 87.6498 156.246 86.5098C155.4 85.3578 154.045 84.6702 152.612 84.6702ZM144.015 101.824H83.9847L81.5119 93.7175H146.488L144.015 101.824Z" fill="#AFFFB3"/>
<path d="M227.897 46.6959C228.58 42.0335 225.992 36.0443 216.44 34.5364C206.125 32.9079 195.793 36.3398 190.279 38.674C178.967 12.6963 167.588 0 155.642 0H72.3584C60.4116 0 49.0392 12.6963 37.7272 38.674C32.2072 36.3398 21.8867 32.9139 11.5602 34.5364C2.00763 36.0443 -0.580043 42.0275 0.103151 46.6959C0.834712 51.6779 5.2664 56.3704 11.7719 58.6081C6.55419 63.7349 2.82988 69.7664 2.82988 75.1827V108.658C2.82988 120.335 8.28334 127.94 17.9448 130.606V147.259C17.9448 152.633 22.3281 157 27.7151 157H52.4249C57.8119 157 62.1891 152.627 62.1891 147.259V131.722H165.793V147.259C165.793 152.633 170.176 157 175.563 157H200.267C205.66 157 210.037 152.627 210.037 147.259V130.6C219.699 127.94 225.152 120.328 225.152 108.651V75.1706C225.152 69.7543 221.422 63.7228 216.216 58.5961C222.734 56.3644 227.165 51.6779 227.897 46.6959ZM72.3584 9.04123H155.636C160.63 9.04123 170.914 14.4274 184.723 48.9517C181.506 50.6103 178.411 52.9083 175.2 55.3632C169.372 59.8023 163.35 64.3984 156.79 64.3984H71.2158C64.6498 64.3984 58.622 59.8023 52.7998 55.3632C49.5893 52.9144 46.4938 50.6164 43.2774 48.9637C57.0863 14.4274 67.3705 9.04123 72.3584 9.04123ZM9.0814 45.375C8.97862 44.6572 10.6534 43.843 12.9811 43.4811C20.7683 42.2446 28.9787 44.8683 33.6341 46.7803C30.0972 47.1362 26.0766 48.5837 22.1105 50.8214C14.1661 51.5935 9.3837 47.4378 9.0814 45.375ZM53.1323 147.259C53.1323 147.645 52.8179 147.953 52.437 147.953H27.7271C27.3463 147.953 27.0258 147.645 27.0258 147.259V131.722H53.1323V147.259ZM200.279 147.959H175.575C175.188 147.959 174.874 147.651 174.874 147.265V131.728H200.98V147.259C200.974 147.651 200.666 147.959 200.279 147.959ZM216.095 108.658C216.095 118.362 211.7 122.675 201.857 122.675H26.1492C16.3003 122.675 11.9109 118.362 11.9109 108.658V75.1767C11.9109 68.9823 26.524 55.7009 35.1818 55.7009C35.6111 55.7009 35.992 55.7492 36.3185 55.8276C39.5289 56.6298 43.3015 59.5008 47.2919 62.5407C53.9848 67.6554 61.5785 73.4396 71.2158 73.4396H156.79C166.428 73.4396 174.015 67.6554 180.714 62.5407C184.711 59.5008 188.477 56.6298 191.688 55.8276C192.014 55.7431 192.395 55.7009 192.824 55.7009C201.488 55.7009 216.095 68.9763 216.095 75.1767V108.658ZM205.902 50.8154C201.935 48.5777 197.915 47.1302 194.372 46.7743C199.027 44.8804 207.238 42.2507 215.025 43.4751C217.353 43.843 219.027 44.6512 218.925 45.369C218.616 47.4378 213.834 51.5935 205.902 50.8154Z" fill="#AFFFB3"/>
<path d="M40.0789 76.594C31.0825 76.594 23.7669 83.8861 23.7669 92.861C23.7669 101.836 31.0825 109.14 40.0789 109.14C49.0753 109.14 56.3909 101.836 56.3909 92.861C56.3909 83.8861 49.0753 76.594 40.0789 76.594ZM40.0789 100.093C36.0825 100.093 32.8358 96.8418 32.8358 92.861C32.8358 88.8802 36.0886 85.6413 40.0789 85.6413C44.0692 85.6413 47.322 88.8802 47.322 92.861C47.322 96.8418 44.0753 100.093 40.0789 100.093Z" fill="#AFFFB3"/>
<path d="M187.921 76.594C178.931 76.594 171.609 83.8861 171.609 92.861C171.609 101.836 178.931 109.14 187.921 109.14C196.917 109.14 204.233 101.836 204.233 92.861C204.233 83.8861 196.917 76.594 187.921 76.594ZM187.921 100.093C183.924 100.093 180.678 96.8418 180.678 92.861C180.678 88.8802 183.924 85.6413 187.921 85.6413C191.917 85.6413 195.164 88.8802 195.164 92.861C195.164 96.8418 191.917 100.093 187.921 100.093Z" fill="#AFFFB3"/>
</svg>
